<svg width="34" height="32" viewBox="0 0 34 32" fill="none" xmlns="http://www.w3.org/2000/svg">
  <path d="M30.7491 12.692L33.6601 13.3253L33.6594 13.3259C33.2684 15.7026 30.5583 18.2177 26.7872 19.4425C26.3594 19.5816 25.9255 19.701 25.4869 19.8004C25.487 19.7969 25.487 19.7935 25.487 19.79C25.487 19.6873 25.4607 19.5905 25.4144 19.5064L30.7055 12.7393L22.3516 10.3484C22.3426 10.2144 22.2888 10.0926 22.2051 9.99792C22.6449 9.80623 23.0939 9.63623 23.5505 9.48858C27.3273 8.26139 31.003 8.70678 32.7146 10.4043L30.7491 12.692Z" fill="white"></path>
  <path d="M21.9979 9.84739C22.0436 9.37566 22.0662 8.90191 22.0655 8.42784C22.0655 4.45841 20.5061 1.10211 18.3619 0L16.7923 2.57604L15.2902 0.00435513C13.1496 1.11163 11.5945 4.46505 11.5945 8.42853C11.5945 8.91164 11.6175 9.39476 11.6644 9.87558C11.7502 9.82681 11.8495 9.79895 11.9552 9.79895C11.9792 9.79895 12.0028 9.80039 12.0261 9.80318L16.8297 2.68138L21.6896 9.80356C21.7139 9.80052 21.7385 9.79895 21.7636 9.79895C21.8468 9.79895 21.9261 9.81623 21.9979 9.84739Z" fill="white"></path>
  <path d="M11.4972 10.0174C11.0439 9.8181 10.5808 9.64182 10.1096 9.4892C6.33275 8.26289 2.65855 8.70747 0.945502 10.4057L2.90886 12.6934L0 13.326C0.390974 15.7026 3.10106 18.2176 6.87437 19.4433C7.35931 19.6009 7.85214 19.7331 8.35079 19.8395C8.34943 19.8232 8.34874 19.8067 8.34874 19.7901C8.34874 19.7155 8.36264 19.644 8.38803 19.5781L3.01294 12.7396L11.3678 10.3404C11.3776 10.2185 11.4245 10.1071 11.4972 10.0174Z" fill="white"></path>
  <path d="M8.38136 19.9839C8.04587 20.3592 7.72958 20.7513 7.43382 21.1587C5.09884 24.3694 4.38725 28.0003 5.47401 30.152L8.25876 28.9909L7.96175 31.9542C10.3433 32.3156 13.575 30.5156 15.9083 27.31C16.1759 26.9423 16.4262 26.5624 16.6585 26.1716C16.5138 26.1432 16.3882 26.0619 16.3026 25.9488L8.33876 28.8069L8.62182 20.2874C8.51103 20.2168 8.42532 20.1102 8.38136 19.9839Z" fill="white"></path>
  <path d="M16.9884 26.1419C17.2259 26.5433 17.4826 26.9331 17.7576 27.31C20.0889 30.5177 23.3191 32.3128 25.7033 31.9542L25.4056 28.9909L28.1874 30.1527C29.2736 28.0012 28.5633 24.3696 26.227 21.1579C25.9646 20.7965 25.6859 20.4473 25.3918 20.1113C25.3173 20.2257 25.2041 20.3125 25.0708 20.3534L25.3808 28.8374L17.2796 25.894C17.2131 26.0058 17.1108 26.0937 16.9884 26.1419Z" fill="white"></path>
  <path d="M16.9576 10.2029V3.42346L21.3958 9.92774C21.3077 9.99815 21.2402 10.0934 21.204 10.2029H16.9576Z" fill="white"></path>
  <path d="M13.1523 20.6473L16.4753 22.589C16.4996 22.5748 16.5251 22.5622 16.5515 22.5515V20.9749L13.1523 20.6473Z" fill="white"></path>
  <path d="M17.0975 22.6062L20.4498 20.6473L17.0517 20.9748V22.5788C17.0675 22.5872 17.0827 22.5964 17.0975 22.6062Z" fill="white"></path>
  <path d="M21.2809 15.2605L19.9029 15.9889L21.3679 19.149V15.3179C21.3371 15.3013 21.3081 15.2821 21.2809 15.2605Z" fill="white"></path>
  <path d="M21.0589 14.7673L17.6812 12.8343L19.6473 15.5582L21.0582 14.8125L21.058 14.7989C21.058 14.7883 21.0583 14.7778 21.0589 14.7673Z" fill="white"></path>
  <path d="M12.2343 19.1638V15.3456C12.2826 15.3262 12.3276 15.3005 12.3685 15.2698L13.7275 15.9881L12.2343 19.1638Z" fill="white"></path>
  <path d="M13.9831 15.5574L15.9331 12.8274L12.6 14.7349C12.6023 14.7559 12.6034 14.7772 12.6034 14.7988C12.6034 14.8085 12.6032 14.8182 12.6027 14.8278L13.9831 15.5574Z" fill="white"></path>
  <path d="M14.0726 16.4297L12.3617 20.0685L16.3475 20.4527L14.0726 16.4297Z" fill="white"></path>
  <path d="M19.5564 16.4308L17.2584 20.4523L21.2426 20.0683L19.5564 16.4308Z" fill="white"></path>
  <path d="M19.0768 15.6226H14.5513L16.8022 12.4713L19.0768 15.6226Z" fill="white"></path>
  <path d="M16.8027 20.2415L14.4737 16.1228H19.1563L16.8027 20.2415Z" fill="white"></path>
  <path fill-rule="evenodd" clip-rule="evenodd" d="M12.5308 10.5156H21.188C21.2462 10.7799 21.4818 10.9776 21.7636 10.9776C21.804 10.9776 21.8436 10.9735 21.8819 10.9657L24.5744 19.2972C24.4143 19.4024 24.3084 19.5837 24.3084 19.79C24.3084 19.8913 24.334 19.9868 24.3791 20.0701L17.1552 25.145C17.0523 25.0572 16.9187 25.004 16.7726 25.004C16.6528 25.004 16.5412 25.0399 16.4481 25.1013L9.42878 20.1165C9.49103 20.0231 9.5274 19.9108 9.5274 19.7901C9.5274 19.5526 9.38703 19.3481 9.18476 19.2547L11.8382 10.966C11.8761 10.9736 11.9152 10.9776 11.9552 10.9776C12.237 10.9776 12.4726 10.7799 12.5308 10.5156ZM16.6295 11.8525L12.3397 14.3075C12.2464 14.2456 12.1344 14.2095 12.0141 14.2095C11.6886 14.2095 11.4248 14.4733 11.4248 14.7988C11.4248 15.0231 11.55 15.2179 11.7341 15.3175V20.2277L11.6069 20.4983L11.965 20.5328L16.191 23.0023C16.1859 23.0335 16.1833 23.0654 16.1833 23.0979C16.1833 23.4234 16.4472 23.6873 16.7726 23.6873C17.0981 23.6873 17.362 23.4234 17.362 23.0979C17.362 23.076 17.3608 23.0544 17.3584 23.0331L21.6372 20.5328L21.9934 20.4985L21.8681 20.2281V15.3455C22.0842 15.2581 22.2367 15.0464 22.2367 14.7989C22.2367 14.4734 21.9728 14.2096 21.6474 14.2096C21.5154 14.2096 21.3935 14.253 21.2953 14.3263L16.9723 11.8523L16.8001 11.6137L16.6295 11.8525Z" fill="white"></path>
  <path d="M22.2889 10.6557C22.257 10.7181 22.2145 10.774 22.1637 10.821L23.5109 14.9896L29.9133 12.8377L22.2889 10.6557Z" fill="white"></path>
  <path d="M24.8719 19.2012L23.607 15.2871L29.9954 13.14L25.1941 19.2805C25.107 19.2298 25.0057 19.2006 24.8977 19.2006L24.8837 19.2008L24.8719 19.2012Z" fill="white"></path>
  <path d="M24.7583 20.3627C24.7014 20.3489 24.6478 20.3269 24.5987 20.2979L21.0251 22.8085L25.0407 28.0922L24.7583 20.3627Z" fill="white"></path>
  <path d="M24.8017 28.2944L17.362 25.5913C17.3618 25.5258 17.3508 25.4627 17.3308 25.4037L20.7691 22.9883L24.8017 28.2944Z" fill="white"></path>
  <path d="M16.1868 25.6582C16.1845 25.6368 16.1833 25.6152 16.1833 25.5933C16.1833 25.5019 16.2042 25.4153 16.2414 25.338L12.8416 22.9236L8.91289 28.2687L16.1868 25.6582Z" fill="white"></path>
  <path d="M12.5867 22.7426L8.67631 28.0627L8.93158 20.3794L8.93807 20.3794C9.02558 20.3794 9.10883 20.3603 9.18367 20.3259L12.5867 22.7426Z" fill="white"></path>
  <path d="M8.58272 19.3199C8.6651 19.2576 8.76445 19.2163 8.87263 19.2043L10.1225 15.3L3.72666 13.1417L8.58272 19.3199Z" fill="white"></path>
  <path d="M3.80379 12.8378L11.4265 10.6489C11.4588 10.7144 11.503 10.773 11.5561 10.8219L10.2178 15.0022L3.80379 12.8378Z" fill="white"></path>
  <path d="M12.3205 9.92579C12.4098 9.99639 12.4782 10.0923 12.5148 10.2029H16.6449V3.51444L12.3205 9.92579Z" fill="white"></path>
</svg>